<svg width="512" height="512" viewBox="0 0 512 512" fill="none" xmlns="http://www.w3.org/2000/svg"><path d="M356.4 88c-43.6 0-82.3 22.1-100.4 56.1-18.1-34-56.8-56.1-100.4-56.1-67 0-121.5 54.5-121.5 121.5 0 19.9 4.8 38.6 13.3 55.2 26 51.6 104.3 122.2 196.2 156.5 7.8 2.9 17 2.9 24.8 0 28.3-10.6 56-26 81.4-44.6-9.6-15.9-15.2-34.5-15.2-54.4 0-67 54.5-121.5 121.5-121.5 12.5 0 24.5 1.9 35.7 5.4C489 140.7 433.8 88 356.4 88" fill="#f04e61"/><circle cx="410" cy="360" r="98" fill="#f04e61" stroke="#fff" stroke-width="20"/><path d="M410 310v100m-50-50h100" stroke="#fff" stroke-width="20" stroke-linecap="round"/></svg>